<svg xmlns="http://www.w3.org/2000/svg" width="53" height="54" viewBox="0 0 53 54" fill="none"><path fill-rule="evenodd" clip-rule="evenodd" d="M34.888 40.2408C34.888 32.795 30.6548 26.3379 24.4638 23.1451C26.6536 17.0913 30.9584 10.4998 38.138 1.93529C40.0187 -0.308095 43.3348 -0.637104 45.6634 1.13702C48.3156 3.15775 48.5822 7.02604 46.5425 9.6637C42.6081 14.7516 40.0277 20.001 38.7055 25.1246C46.5213 25.1246 52.8175 31.6379 52.8175 39.6708C52.8175 47.2696 46.5213 54 38.2713 54C35.5062 54 33.0322 53.2724 30.9124 51.9488C33.4056 48.7067 34.888 44.6469 34.888 40.2408ZM15.4986 1.93533C17.3792 -0.308058 20.6954 -0.637068 23.0239 1.13705C25.6761 3.15779 25.9427 7.02607 23.903 9.66374C19.9686 14.7516 17.3882 20.0011 16.066 25.1247C23.8819 25.1247 30.178 31.6379 30.178 39.6709C30.178 47.2697 23.8819 54 15.6318 54C6.07902 54 0 45.3157 0 33.3748C0 24.0482 4.17154 15.4472 15.4986 1.93533Z" fill="#F9B744"></path></svg>