<svg xmlns="http://www.w3.org/2000/svg" width="24" height="24" viewBox="0 0 24 24" fill="none"><path fill-rule="evenodd" clip-rule="evenodd" d="M15.5058 17.8848C15.5058 14.5755 13.6243 11.7057 10.8728 10.2867C11.8461 7.59611 13.7593 4.66656 16.9502 0.860131C17.7861 -0.136931 19.2599 -0.283157 20.2948 0.505341C21.4736 1.40344 21.5921 3.12268 20.6856 4.29498C18.9369 6.55626 17.7901 8.88934 17.2024 11.1665C20.6762 11.1665 23.4744 14.0613 23.4744 17.6315C23.4744 21.0087 20.6762 24 17.0094 24C15.7805 24 14.681 23.6766 13.7388 23.0884C14.847 21.6474 15.5058 19.843 15.5058 17.8848ZM6.88825 0.860147C7.72408 -0.136914 9.19794 -0.283141 10.2328 0.505357C11.4116 1.40346 11.5301 3.1227 10.6236 4.29499C8.87495 6.55628 7.72809 8.88936 7.14044 11.1665C10.6142 11.1665 13.4124 14.0613 13.4124 17.6315C13.4124 21.0087 10.6142 24 6.94745 24C2.70179 24 0 20.1403 0 14.8332C0 10.6881 1.85402 6.86542 6.88825 0.860147Z" fill="#F9B744"></path></svg>